# Blender 3.6.1
# www.blender.org
mtllib glass.mtl
o glass
v 0.000000 -0.750959 -0.488749
v 0.000000 0.750959 -0.464730
v 0.097333 -0.750959 -0.479358
v 0.092550 0.750959 -0.455801
v 0.190926 -0.750959 -0.451545
v 0.181543 0.750959 -0.429355
v 0.277181 -0.750959 -0.406380
v 0.263560 0.750959 -0.386409
v 0.352785 -0.750959 -0.345598
v 0.335448 0.750959 -0.328614
v 0.414831 -0.750959 -0.271534
v 0.394445 0.750959 -0.258190
v 0.460936 -0.750959 -0.187036
v 0.438284 0.750959 -0.177845
v 0.489327 -0.750959 -0.095350
v 0.465279 0.750959 -0.090664
v 0.498913 -0.750959 0.000000
v 0.474395 0.750959 0.000000
v 0.489327 -0.750959 0.095350
v 0.465279 0.750959 0.090664
v 0.460936 -0.750959 0.187036
v 0.438284 0.750959 0.177845
v 0.414831 -0.750959 0.271534
v 0.394445 0.750959 0.258190
v 0.352785 -0.750959 0.345598
v 0.335448 0.750959 0.328614
v 0.277181 -0.750959 0.406380
v 0.263560 0.750959 0.386409
v 0.190926 -0.750959 0.451545
v 0.181543 0.750959 0.429355
v 0.097333 -0.750959 0.479358
v 0.092550 0.750959 0.455801
v 0.000000 -0.750959 0.488749
v 0.000000 0.750959 0.464730
v -0.097333 -0.750959 0.479358
v -0.092550 0.750959 0.455801
v -0.190926 -0.750959 0.451545
v -0.181543 0.750959 0.429355
v -0.277181 -0.750959 0.406380
v -0.263560 0.750959 0.386409
v -0.352785 -0.750959 0.345598
v -0.335448 0.750959 0.328614
v -0.414831 -0.750959 0.271534
v -0.394445 0.750959 0.258190
v -0.460936 -0.750959 0.187036
v -0.438284 0.750959 0.177845
v -0.489327 -0.750959 0.095350
v -0.465279 0.750959 0.090664
v -0.498913 -0.750959 0.000000
v -0.474395 0.750959 0.000000
v -0.489327 -0.750959 -0.095350
v -0.465279 0.750959 -0.090664
v -0.460936 -0.750959 -0.187036
v -0.438284 0.750959 -0.177845
v -0.414831 -0.750959 -0.271534
v -0.394445 0.750959 -0.258190
v -0.352785 -0.750959 -0.345598
v -0.335448 0.750959 -0.328614
v -0.277181 -0.750959 -0.406380
v -0.263560 0.750959 -0.386409
v -0.190926 -0.750959 -0.451545
v -0.181543 0.750959 -0.429355
v -0.097333 -0.750959 -0.479358
v -0.092550 0.750959 -0.455801
v 0.097333 0.750959 -0.479358
v 0.000000 0.750959 -0.488749
v 0.190926 0.750959 -0.451545
v 0.277181 0.750959 -0.406380
v 0.352785 0.750959 -0.345598
v 0.414831 0.750959 -0.271534
v 0.460936 0.750959 -0.187036
v 0.489327 0.750959 -0.095350
v 0.498913 0.750959 0.000000
v 0.489327 0.750959 0.095350
v 0.460936 0.750959 0.187036
v 0.414831 0.750959 0.271534
v 0.352785 0.750959 0.345598
v 0.277181 0.750959 0.406380
v 0.190926 0.750959 0.451545
v 0.097333 0.750959 0.479358
v 0.000000 0.750959 0.488749
v -0.097333 0.750959 0.479358
v -0.190926 0.750959 0.451545
v -0.277181 0.750959 0.406380
v -0.352785 0.750959 0.345598
v -0.414831 0.750959 0.271534
v -0.460936 0.750959 0.187036
v -0.489327 0.750959 0.095350
v -0.498913 0.750959 0.000000
v -0.489327 0.750959 -0.095350
v -0.460936 0.750959 -0.187036
v -0.414831 0.750959 -0.271534
v -0.352785 0.750959 -0.345598
v -0.277181 0.750959 -0.406380
v -0.190926 0.750959 -0.451545
v -0.097333 0.750959 -0.479358
v 0.092550 -0.555914 -0.455801
v 0.000000 -0.555914 -0.464730
v 0.181543 -0.555914 -0.429355
v 0.263560 -0.555914 -0.386409
v 0.335448 -0.555914 -0.328614
v 0.394445 -0.555914 -0.258190
v 0.438284 -0.555914 -0.177845
v 0.465279 -0.555914 -0.090664
v 0.474395 -0.555914 0.000000
v 0.465279 -0.555914 0.090664
v 0.438284 -0.555914 0.177845
v 0.394445 -0.555914 0.258190
v 0.335448 -0.555914 0.328614
v 0.263560 -0.555914 0.386409
v 0.181543 -0.555914 0.429355
v 0.092550 -0.555914 0.455801
v 0.000000 -0.555914 0.464730
v -0.092550 -0.555914 0.455801
v -0.181543 -0.555914 0.429355
v -0.263560 -0.555914 0.386409
v -0.335448 -0.555914 0.328614
v -0.394445 -0.555914 0.258190
v -0.438283 -0.555914 0.177845
v -0.465279 -0.555914 0.090664
v -0.474395 -0.555914 0.000000
v -0.465279 -0.555914 -0.090664
v -0.438283 -0.555914 -0.177845
v -0.394445 -0.555914 -0.258190
v -0.335448 -0.555914 -0.328614
v -0.263560 -0.555914 -0.386409
v -0.181543 -0.555914 -0.429355
v -0.092550 -0.555914 -0.455801
vn -0.0000 -0.0000 -1.0000
vn 0.1913 -0.0000 -0.9815
vn 0.3760 -0.0000 -0.9266
vn 0.5477 -0.0000 -0.8367
vn 0.6998 -0.0000 -0.7143
vn 0.8261 -0.0000 -0.5635
vn 0.9210 -0.0000 -0.3894
vn 0.9800 -0.0000 -0.1990
vn 1.0000 -0.0000 -0.0000
vn 0.9800 -0.0000 0.1990
vn 0.9210 -0.0000 0.3894
vn 0.8261 -0.0000 0.5635
vn 0.6998 -0.0000 0.7143
vn 0.5477 -0.0000 0.8367
vn 0.3760 -0.0000 0.9266
vn 0.1913 -0.0000 0.9815
vn -0.0000 -0.0000 1.0000
vn -0.1913 -0.0000 0.9815
vn -0.3760 -0.0000 0.9266
vn -0.5477 -0.0000 0.8367
vn -0.6998 -0.0000 0.7143
vn -0.8261 -0.0000 0.5635
vn -0.9210 -0.0000 0.3894
vn -0.9800 -0.0000 0.1990
vn -1.0000 -0.0000 -0.0000
vn -0.9800 -0.0000 -0.1990
vn -0.9210 -0.0000 -0.3894
vn -0.8261 -0.0000 -0.5635
vn -0.6998 -0.0000 -0.7143
vn -0.5477 -0.0000 -0.8367
vn -0.3760 -0.0000 -0.9266
vn -0.1913 -0.0000 -0.9815
vn -0.0000 -1.0000 -0.0000
vn -0.0000 1.0000 -0.0000
vt 1.000000 1.000000
vt 0.968750 0.500000
vt 1.000000 0.500000
vt 0.968750 1.000000
vt 0.937500 0.500000
vt 0.937500 1.000000
vt 0.906250 0.500000
vt 0.906250 1.000000
vt 0.875000 0.500000
vt 0.875000 1.000000
vt 0.843750 0.500000
vt 0.843750 1.000000
vt 0.812500 0.500000
vt 0.812500 1.000000
vt 0.781250 0.500000
vt 0.781250 1.000000
vt 0.750000 0.500000
vt 0.750000 1.000000
vt 0.718750 0.500000
vt 0.718750 1.000000
vt 0.687500 0.500000
vt 0.687500 1.000000
vt 0.656250 0.500000
vt 0.656250 1.000000
vt 0.625000 0.500000
vt 0.625000 1.000000
vt 0.593750 0.500000
vt 0.593750 1.000000
vt 0.562500 0.500000
vt 0.562500 1.000000
vt 0.531250 0.500000
vt 0.531250 1.000000
vt 0.500000 0.500000
vt 0.500000 1.000000
vt 0.468750 0.500000
vt 0.468750 1.000000
vt 0.437500 0.500000
vt 0.437500 1.000000
vt 0.406250 0.500000
vt 0.406250 1.000000
vt 0.375000 0.500000
vt 0.375000 1.000000
vt 0.343750 0.500000
vt 0.343750 1.000000
vt 0.312500 0.500000
vt 0.312500 1.000000
vt 0.281250 0.500000
vt 0.281250 1.000000
vt 0.250000 0.500000
vt 0.250000 1.000000
vt 0.218750 0.500000
vt 0.218750 1.000000
vt 0.187500 0.500000
vt 0.187500 1.000000
vt 0.156250 0.500000
vt 0.156250 1.000000
vt 0.125000 0.500000
vt 0.125000 1.000000
vt 0.093750 0.500000
vt 0.093750 1.000000
vt 0.062500 0.500000
vt 0.411366 0.088634
vt 0.376784 0.060254
vt 0.062500 1.000000
vt 0.031250 0.500000
vt 0.031250 1.000000
vt 0.000000 0.500000
vt 0.796822 0.014612
vt 0.514612 0.203178
vt 0.703178 0.485388
vt 0.485388 0.296822
vt 0.473821 0.294521
vt 0.478206 0.250000
vt 0.021794 0.250000
vt 0.026179 0.294521
vt 0.014612 0.296822
vt 0.162670 0.039166
vt 0.460834 0.162670
vt 0.337330 0.460834
vt 0.039166 0.337330
vt 0.060254 0.376784
vt 0.337330 0.039166
vt 0.294521 0.473821
vt 0.250000 0.478205
vt 0.088634 0.411366
vt 0.294521 0.026179
vt 0.123216 0.439746
vt 0.250000 0.021794
vt 0.376784 0.439746
vt 0.162670 0.460834
vt 0.205479 0.026179
vt 0.411366 0.411366
vt 0.205479 0.473821
vt 0.439746 0.376784
vt 0.123216 0.060254
vt 0.460834 0.337331
vt 0.088634 0.088634
vt 0.060254 0.123216
vt 0.039166 0.162670
vt 0.473821 0.205479
vt 0.026179 0.205479
vt 0.439746 0.123216
vt 0.000000 1.000000
vt 0.750000 0.490000
vt 0.796822 0.485388
vt 0.841844 0.471731
vt 0.883337 0.449553
vt 0.919706 0.419706
vt 0.949553 0.383337
vt 0.971731 0.341844
vt 0.985388 0.296822
vt 0.990000 0.250000
vt 0.985388 0.203178
vt 0.971731 0.158156
vt 0.949553 0.116663
vt 0.919706 0.080294
vt 0.883337 0.050447
vt 0.841844 0.028269
vt 0.750000 0.010000
vt 0.703178 0.014612
vt 0.658156 0.028269
vt 0.616663 0.050447
vt 0.580294 0.080294
vt 0.550447 0.116663
vt 0.528269 0.158156
vt 0.510000 0.250000
vt 0.514612 0.296822
vt 0.528269 0.341844
vt 0.550447 0.383337
vt 0.580294 0.419706
vt 0.616663 0.449553
vt 0.658156 0.471731
vt 0.116663 0.050447
vt 0.158156 0.028269
vt 0.203178 0.014612
vt 0.250000 0.010000
vt 0.296822 0.014612
vt 0.341844 0.028269
vt 0.383337 0.050447
vt 0.419706 0.080294
vt 0.449553 0.116663
vt 0.471731 0.158156
vt 0.485388 0.203178
vt 0.490000 0.250000
vt 0.471731 0.341844
vt 0.449553 0.383337
vt 0.419706 0.419706
vt 0.383337 0.449553
vt 0.341844 0.471731
vt 0.296822 0.485388
vt 0.250000 0.490000
vt 0.203178 0.485388
vt 0.158156 0.471731
vt 0.116663 0.449553
vt 0.080294 0.419706
vt 0.050447 0.383337
vt 0.028269 0.341844
vt 0.010000 0.250000
vt 0.014612 0.203178
vt 0.028269 0.158156
vt 0.050447 0.116663
vt 0.080294 0.080294
s 1
f 66/1/1 3/2/2 1/3/1
f 65/4/2 5/5/3 3/2/2
f 67/6/3 7/7/4 5/5/3
f 68/8/4 9/9/5 7/7/4
f 69/10/5 11/11/6 9/9/5
f 70/12/6 13/13/7 11/11/6
f 71/14/7 15/15/8 13/13/7
f 72/16/8 17/17/9 15/15/8
f 73/18/9 19/19/10 17/17/9
f 74/20/10 21/21/11 19/19/10
f 75/22/11 23/23/12 21/21/11
f 76/24/12 25/25/13 23/23/12
f 77/26/13 27/27/14 25/25/13
f 78/28/14 29/29/15 27/27/14
f 79/30/15 31/31/16 29/29/15
f 80/32/16 33/33/17 31/31/16
f 81/34/17 35/35/18 33/33/17
f 82/36/18 37/37/19 35/35/18
f 83/38/19 39/39/20 37/37/19
f 84/40/20 41/41/21 39/39/20
f 85/42/21 43/43/22 41/41/21
f 86/44/22 45/45/23 43/43/22
f 87/46/23 47/47/24 45/45/23
f 88/48/24 49/49/25 47/47/24
f 89/50/25 51/51/26 49/49/25
f 90/52/26 53/53/27 51/51/26
f 91/54/27 55/55/28 53/53/27
f 92/56/28 57/57/29 55/55/28
f 93/58/29 59/59/30 57/57/29
f 94/60/30 61/61/31 59/59/30
f 26/62/29 110/63/30 28/63/30
f 95/64/31 63/65/32 61/61/31
f 96/66/32 1/67/1 63/65/32
f 31/68/33 47/69/33 63/70/33
f 82/36/18 83/38/19 37/37/19
f 89/50/25 90/52/26 51/51/26
f 91/54/27 92/56/28 55/55/28
f 83/38/19 84/40/20 39/39/20
f 85/42/21 86/44/22 43/43/22
f 87/46/23 88/48/24 47/47/24
f 81/34/17 82/36/18 35/35/18
f 74/20/10 75/22/11 21/21/11
f 72/16/8 73/18/9 17/17/9
f 86/44/22 87/46/23 45/45/23
f 90/52/26 91/54/27 53/53/27
f 92/56/28 93/58/29 57/57/29
f 75/22/11 76/24/12 23/23/12
f 78/28/14 79/30/15 29/29/15
f 73/18/9 74/20/10 19/19/10
f 72/71/34 16/72/34 18/73/34
f 69/10/5 70/12/6 11/11/6
f 77/26/13 78/28/14 27/27/14
f 79/30/15 80/32/16 31/31/16
f 66/1/1 65/4/2 3/2/2
f 68/8/4 69/10/5 9/9/5
f 71/14/7 72/16/8 15/15/8
f 65/4/2 67/6/3 5/5/3
f 50/74/34 52/75/34 90/76/34
f 67/6/3 68/8/4 7/7/4
f 70/12/6 71/14/7 13/13/7
f 76/24/12 77/26/13 25/25/13
f 88/48/24 89/50/25 49/49/25
f 93/58/29 94/60/30 59/59/30
f 80/32/16 81/34/17 33/33/17
f 84/40/20 85/42/21 41/41/21
f 26/62/29 109/62/29 110/63/30
f 115/77/34 107/78/34 99/79/34
f 54/80/11 124/81/12 56/81/12
f 28/63/30 111/82/31 30/82/31
f 4/83/18 98/84/17 97/83/18
f 58/85/13 124/81/12 125/85/13
f 30/82/31 112/86/32 32/86/32
f 4/83/18 99/79/19 6/79/19
f 60/87/14 125/85/13 126/87/14
f 32/86/32 113/88/1 34/88/1
f 6/79/19 100/89/20 8/89/20
f 60/87/14 127/90/15 62/90/15
f 34/88/1 114/91/2 36/91/2
f 8/89/20 101/92/21 10/92/21
f 64/93/16 127/90/15 128/93/16
f 38/77/3 114/91/2 115/77/3
f 10/92/21 102/94/22 12/94/22
f 2/84/17 128/93/16 98/84/17
f 38/77/3 116/95/4 40/95/4
f 12/94/22 103/96/23 14/96/23
f 40/95/4 117/97/5 42/97/5
f 14/96/23 104/72/24 16/72/24
f 42/97/5 118/98/6 44/98/6
f 16/72/24 105/73/25 18/73/25
f 44/98/6 119/99/7 46/99/7
f 18/73/25 106/100/26 20/100/26
f 46/99/7 120/101/8 48/101/8
f 20/100/26 107/78/27 22/78/27
f 48/101/8 121/74/9 50/74/9
f 22/78/27 108/102/28 24/102/28
f 50/74/9 122/75/10 52/75/10
f 26/62/29 108/102/28 109/62/29
f 52/75/10 123/80/11 54/80/11
f 94/60/30 95/64/31 61/61/31
f 95/64/31 96/66/32 63/65/32
f 96/66/32 66/103/1 1/67/1
f 63/70/33 1/104/33 3/105/33
f 3/105/33 5/106/33 7/107/33
f 7/107/33 9/108/33 11/109/33
f 11/109/33 13/110/33 15/111/33
f 15/111/33 17/112/33 19/113/33
f 19/113/33 21/114/33 23/115/33
f 23/115/33 25/116/33 27/117/33
f 27/117/33 29/118/33 31/68/33
f 31/68/33 33/119/33 35/120/33
f 35/120/33 37/121/33 39/122/33
f 39/122/33 41/123/33 43/124/33
f 43/124/33 45/125/33 47/69/33
f 47/69/33 49/126/33 51/127/33
f 51/127/33 53/128/33 55/129/33
f 55/129/33 57/130/33 59/131/33
f 59/131/33 61/132/33 63/70/33
f 63/70/33 3/105/33 15/111/33
f 3/105/33 7/107/33 15/111/33
f 7/107/33 11/109/33 15/111/33
f 15/111/33 19/113/33 31/68/33
f 19/113/33 23/115/33 31/68/33
f 23/115/33 27/117/33 31/68/33
f 31/68/33 35/120/33 47/69/33
f 35/120/33 39/122/33 47/69/33
f 39/122/33 43/124/33 47/69/33
f 47/69/33 51/127/33 63/70/33
f 51/127/33 55/129/33 63/70/33
f 55/129/33 59/131/33 63/70/33
f 63/70/33 15/111/33 31/68/33
f 38/77/34 40/95/34 84/133/34
f 84/133/34 83/134/34 38/77/34
f 83/134/34 82/135/34 38/77/34
f 82/135/34 81/136/34 36/91/34
f 81/136/34 80/137/34 34/88/34
f 36/91/34 81/136/34 34/88/34
f 80/137/34 79/138/34 30/82/34
f 79/138/34 78/139/34 30/82/34
f 78/139/34 77/140/34 28/63/34
f 77/140/34 76/141/34 26/62/34
f 28/63/34 77/140/34 26/62/34
f 76/141/34 75/142/34 22/78/34
f 75/142/34 74/143/34 22/78/34
f 74/143/34 73/144/34 18/73/34
f 73/144/34 72/71/34 18/73/34
f 72/71/34 71/145/34 14/96/34
f 71/145/34 70/146/34 12/94/34
f 70/146/34 69/147/34 10/92/34
f 69/147/34 68/148/34 10/92/34
f 68/148/34 67/149/34 6/79/34
f 67/149/34 65/150/34 4/83/34
f 65/150/34 66/151/34 2/84/34
f 66/151/34 96/152/34 2/84/34
f 96/152/34 95/153/34 64/93/34
f 95/153/34 94/154/34 62/90/34
f 64/93/34 95/153/34 62/90/34
f 94/154/34 60/87/34 62/90/34
f 36/91/34 38/77/34 82/135/34
f 96/152/34 64/93/34 2/84/34
f 65/150/34 2/84/34 4/83/34
f 32/86/34 34/88/34 80/137/34
f 30/82/34 32/86/34 80/137/34
f 67/149/34 4/83/34 6/79/34
f 28/63/34 30/82/34 78/139/34
f 68/148/34 6/79/34 8/89/34
f 68/148/34 8/89/34 10/92/34
f 70/146/34 10/92/34 12/94/34
f 24/102/34 26/62/34 76/141/34
f 22/78/34 24/102/34 76/141/34
f 71/145/34 12/94/34 14/96/34
f 20/100/34 22/78/34 74/143/34
f 72/71/34 14/96/34 16/72/34
f 18/73/34 20/100/34 74/143/34
f 58/85/34 60/87/34 94/154/34
f 94/154/34 93/155/34 58/85/34
f 93/155/34 92/156/34 58/85/34
f 92/156/34 91/157/34 56/81/34
f 91/157/34 90/76/34 54/80/34
f 56/81/34 91/157/34 54/80/34
f 90/76/34 89/158/34 50/74/34
f 89/158/34 88/159/34 50/74/34
f 88/159/34 87/160/34 46/99/34
f 87/160/34 86/161/34 46/99/34
f 86/161/34 85/162/34 44/98/34
f 85/162/34 84/133/34 42/97/34
f 44/98/34 85/162/34 42/97/34
f 84/133/34 40/95/34 42/97/34
f 56/81/34 58/85/34 92/156/34
f 86/161/34 44/98/34 46/99/34
f 88/159/34 46/99/34 48/101/34
f 52/75/34 54/80/34 90/76/34
f 88/159/34 48/101/34 50/74/34
f 99/79/34 97/83/34 98/84/34
f 98/84/34 128/93/34 127/90/34
f 127/90/34 126/87/34 125/85/34
f 125/85/34 124/81/34 123/80/34
f 123/80/34 122/75/34 121/74/34
f 121/74/34 120/101/34 119/99/34
f 119/99/34 118/98/34 117/97/34
f 117/97/34 116/95/34 115/77/34
f 115/77/34 114/91/34 113/88/34
f 113/88/34 112/86/34 111/82/34
f 111/82/34 110/63/34 109/62/34
f 109/62/34 108/102/34 107/78/34
f 107/78/34 106/100/34 105/73/34
f 105/73/34 104/72/34 103/96/34
f 103/96/34 102/94/34 101/92/34
f 101/92/34 100/89/34 99/79/34
f 99/79/34 98/84/34 127/90/34
f 127/90/34 125/85/34 123/80/34
f 123/80/34 121/74/34 119/99/34
f 119/99/34 117/97/34 115/77/34
f 115/77/34 113/88/34 111/82/34
f 111/82/34 109/62/34 107/78/34
f 107/78/34 105/73/34 103/96/34
f 103/96/34 101/92/34 99/79/34
f 99/79/34 127/90/34 123/80/34
f 123/80/34 119/99/34 115/77/34
f 115/77/34 111/82/34 107/78/34
f 107/78/34 103/96/34 99/79/34
f 99/79/34 123/80/34 115/77/34
f 54/80/11 123/80/11 124/81/12
f 28/63/30 110/63/30 111/82/31
f 4/83/18 2/84/17 98/84/17
f 58/85/13 56/81/12 124/81/12
f 30/82/31 111/82/31 112/86/32
f 4/83/18 97/83/18 99/79/19
f 60/87/14 58/85/13 125/85/13
f 32/86/32 112/86/32 113/88/1
f 6/79/19 99/79/19 100/89/20
f 60/87/14 126/87/14 127/90/15
f 34/88/1 113/88/1 114/91/2
f 8/89/20 100/89/20 101/92/21
f 64/93/16 62/90/15 127/90/15
f 38/77/3 36/91/2 114/91/2
f 10/92/21 101/92/21 102/94/22
f 2/84/17 64/93/16 128/93/16
f 38/77/3 115/77/3 116/95/4
f 12/94/22 102/94/22 103/96/23
f 40/95/4 116/95/4 117/97/5
f 14/96/23 103/96/23 104/72/24
f 42/97/5 117/97/5 118/98/6
f 16/72/24 104/72/24 105/73/25
f 44/98/6 118/98/6 119/99/7
f 18/73/25 105/73/25 106/100/26
f 46/99/7 119/99/7 120/101/8
f 20/100/26 106/100/26 107/78/27
f 48/101/8 120/101/8 121/74/9
f 22/78/27 107/78/27 108/102/28
f 50/74/9 121/74/9 122/75/10
f 26/62/29 24/102/28 108/102/28
f 52/75/10 122/75/10 123/80/11
